<svg xmlns="http://www.w3.org/2000/svg" width="60" height="60.001" viewBox="0 0 59.999998 60.00067"><path d="M22.5 0C10.075 0 0 10.075 0 22.5 0 34.926 10.075 45 22.5 45 34.926 45 45 34.926 45 22.5 45 10.075 34.926 0 22.5 0zm0 5.625c9.305 0 16.875 7.57 16.875 16.875 0 9.306-7.57 16.875-16.875 16.875-9.306 0-16.875-7.57-16.875-16.875S13.195 5.625 22.5 5.625zm22.087 31.008c-2.05 3.19-4.766 5.903-7.955 7.954l13.766 13.766c2.198 2.197 5.76 2.197 7.954 0 2.197-2.194 2.197-5.757 0-7.954L44.587 36.632z"/></svg>