<svg xmlns="http://www.w3.org/2000/svg" viewBox="0 0 512 512"><path d="M485.517 141.24H397.24c-14.625 0-26.482-11.856-26.482-26.482V26.483C370.758 11.857 382.615 0 397.24 0h88.277C500.143 0 512 11.857 512 26.483v88.276c0 14.625-11.857 26.48-26.483 26.48z" fill="#D7DEED"/><path d="M432.552 105.93c-2.26 0-4.52-.86-6.242-2.584l-26.483-26.483c-3.448-3.447-3.448-9.036 0-12.483 3.447-3.447 9.036-3.447 12.483 0l20.242 20.24L479.275 37.9c3.447-3.447 9.036-3.447 12.483 0 3.448 3.447 3.448 9.036 0 12.483l-52.966 52.967c-1.722 1.722-3.982 2.584-6.24 2.584z" fill="#5B5D6E"/><g fill="#D7DEED"><path d="M485.517 326.62H397.24c-14.625 0-26.482-11.856-26.482-26.482v-88.276c0-14.626 11.857-26.483 26.483-26.483h88.277c14.626 0 26.483 11.856 26.483 26.482v88.276c0 14.626-11.857 26.483-26.483 26.483zM485.517 512H397.24c-14.625 0-26.482-11.857-26.482-26.483V397.24c0-14.625 11.857-26.482 26.483-26.482h88.277c14.626 0 26.483 11.857 26.483 26.483v88.277C512 500.143 500.143 512 485.517 512z"/></g><path d="M432.552 476.69c-2.26 0-4.52-.862-6.242-2.585l-26.483-26.483c-3.448-3.447-3.448-9.036 0-12.483 3.447-3.448 9.036-3.448 12.483 0l20.242 20.24 46.723-46.723c3.447-3.447 9.036-3.447 12.483 0 3.448 3.447 3.448 9.036 0 12.483l-52.966 52.966c-1.722 1.722-3.982 2.584-6.24 2.584z" fill="#5B5D6E"/><path d="M185.38 52.966H8.827C3.948 52.966 0 49.013 0 44.138s3.948-8.828 8.828-8.828H185.38c4.88 0 8.828 3.953 8.828 8.828s-3.95 8.828-8.83 8.828z" fill="#D7DEED"/><g fill="#C7CFE2"><path d="M317.793 52.966H220.69c-4.88 0-8.828-3.953-8.828-8.828s3.948-8.828 8.828-8.828h97.103c4.88 0 8.828 3.953 8.828 8.828s-3.947 8.828-8.827 8.828zM317.793 105.93h-35.31c-4.88 0-8.828-3.952-8.828-8.827s3.948-8.828 8.828-8.828h35.31c4.88 0 8.828 3.953 8.828 8.828s-3.947 8.828-8.827 8.828zM79.448 105.93H8.828C3.948 105.93 0 101.98 0 97.104s3.948-8.828 8.828-8.828h70.62c4.88 0 8.83 3.953 8.83 8.828-.002 4.875-3.95 8.828-8.83 8.828z"/></g><g fill="#D7DEED"><path d="M247.172 105.93H114.76c-4.88 0-8.83-3.952-8.83-8.827s3.95-8.828 8.83-8.828h132.413c4.88 0 8.828 3.953 8.828 8.828s-3.948 8.828-8.828 8.828zM185.38 238.345H8.827c-4.88 0-8.828-3.953-8.828-8.828s3.948-8.828 8.828-8.828H185.38c4.88 0 8.828 3.952 8.828 8.827s-3.95 8.828-8.83 8.828z"/></g><g fill="#C7CFE2"><path d="M317.793 238.345H220.69c-4.88 0-8.828-3.953-8.828-8.828s3.948-8.828 8.828-8.828h97.103c4.88 0 8.828 3.952 8.828 8.827s-3.947 8.828-8.827 8.828zM317.793 291.31h-35.31c-4.88 0-8.828-3.953-8.828-8.828s3.948-8.828 8.828-8.828h35.31c4.88 0 8.828 3.953 8.828 8.828s-3.947 8.828-8.827 8.828zM79.448 291.31H8.828c-4.88 0-8.828-3.953-8.828-8.828s3.948-8.828 8.828-8.828h70.62c4.88 0 8.83 3.953 8.83 8.828s-3.95 8.828-8.83 8.828z"/></g><g fill="#D7DEED"><path d="M247.172 291.31H114.76c-4.88 0-8.83-3.953-8.83-8.828s3.95-8.828 8.83-8.828h132.413c4.88 0 8.828 3.953 8.828 8.828s-3.948 8.828-8.828 8.828zM185.38 423.724H8.827c-4.88 0-8.828-3.953-8.828-8.828s3.948-8.828 8.828-8.828H185.38c4.88 0 8.828 3.953 8.828 8.828s-3.95 8.828-8.83 8.828z"/></g><g fill="#C7CFE2"><path d="M317.793 423.724H220.69c-4.88 0-8.828-3.953-8.828-8.828s3.948-8.828 8.828-8.828h97.103c4.88 0 8.828 3.953 8.828 8.828s-3.947 8.828-8.827 8.828zM317.793 476.69h-35.31c-4.88 0-8.828-3.953-8.828-8.828s3.948-8.828 8.828-8.828h35.31c4.88 0 8.828 3.953 8.828 8.828s-3.947 8.828-8.827 8.828zM79.448 476.69H8.828c-4.88 0-8.828-3.953-8.828-8.828s3.948-8.828 8.828-8.828h70.62c4.88 0 8.83 3.953 8.83 8.828s-3.95 8.828-8.83 8.828z"/></g><path d="M247.172 476.69H114.76c-4.88 0-8.83-3.953-8.83-8.828s3.95-8.828 8.83-8.828h132.413c4.88 0 8.828 3.953 8.828 8.828s-3.948 8.828-8.828 8.828z" fill="#D7DEED"/><path d="M453.863 256l20.24-20.24c3.45-3.448 3.45-9.037 0-12.484-3.446-3.447-9.035-3.447-12.482 0l-20.24 20.24-20.24-20.24c-3.448-3.447-9.037-3.447-12.484 0-3.448 3.447-3.448 9.036 0 12.483l20.24 20.24-20.24 20.24c-3.45 3.448-3.45 9.037 0 12.484 1.723 1.724 3.98 2.585 6.24 2.585 2.26 0 4.52-.863 6.243-2.586l20.238-20.24 20.24 20.24c1.725 1.724 3.983 2.585 6.243 2.585 2.26 0 4.52-.863 6.243-2.586 3.448-3.447 3.448-9.036 0-12.483L453.863 256z" fill="#5B5D6E"/></svg>