<svg xmlns="http://www.w3.org/2000/svg" viewBox="0 0 512.002 512.002"><path d="M27.16 463.165h457.69L256 59.125 27.16 463.165zM255.346 417.9c-17.536 0-29.232-12.663-29.232-29.55 0-17.217 12.024-29.56 29.232-29.56 17.216 0 28.584 12.343 28.912 29.56.008 16.887-11.36 29.55-28.912 29.55zm18.52-75.36H236.84l-7.48-147.143h51.65l-7.145 147.144z" fill="#FFF"/><path d="M264.705 33.91c-1.768-3.137-5.096-5.073-8.704-5.073-3.6 0-6.927 1.936-8.703 5.072l-246 434.327c-1.752 3.096-1.728 6.888.064 9.968 1.793 3.072 5.09 4.96 8.64 4.96h492c3.553 0 6.85-1.888 8.64-4.96 1.793-3.08 1.817-6.872.065-9.968l-246-434.328zM27.16 463.164L256 59.125l228.84 404.04H27.16z" fill="#8AD5DD"/><g fill="#DB2B42"><path d="M236.84 342.54h37.025l7.144-147.143h-51.65M255.345 358.78c-17.208 0-29.232 12.345-29.232 29.56 0 16.89 11.696 29.553 29.232 29.553 17.544 0 28.912-12.664 28.912-29.552-.32-17.215-11.688-29.56-28.912-29.56z"/></g></svg>